# xmcd
#
# Track frame offsets:
#	183
#	16365
#	30233
#	41998
#	55908
#	69008
#	87053
#	101735
#	115380
#	132545
#	143863
#	157020
#	172238
#	185723
#	207560
#	222060
#
# Disc length: 3124
#
# Revision: 2
# Processed by: cddbd v1.5.1PL0 Copyright (c) Steve Scherf et al.
# Submitted via: audiograbber 1.81.03
# Normalized: r1:DSETVAR1
#
DISCID=ed0c3210
DTITLE=Various Artist - Das Grosse Trucker-Hitrennen [CD1]
DYEAR=1900
DGENRE=Country
TTITLE0=Tom Astor - Und Ich Seh Die Trucks Vorüberzieh'n
TTITLE1=Nashville Music Company - Der Diesel Rollt Wieder Durch Die Nacht
TTITLE2=Tom Astor - Ja, Das Ist Countrymusic Live
TTITLE3=Ralf Paulson - Hallo Partner Im Verkehr
TTITLE4=Tom Astor - Auch Wenn Ich Mal Das Handtuch Werfe
TTITLE5=Kactus - Immer Unterwegs
TTITLE6=Tom Astor - Jeden Samstagmorgen
TTITLE7=Tom Astor - Nimm Dir Zeit
TTITLE8=Jonny Hill - Express Container Paris
TTITLE9=Kactus - Bärenstarke Cowboys
TTITLE10=Tom Astor - Ich Bin Einer So Wie Du
TTITLE11=Flophouse Strinband - Fahr' Nicht Schneller Als Dein Schutzengel Fli Egen Kann
TTITLE12=Smily Music - Kumm Jet Bei Mich Bei
TTITLE13=Gunter Gabriel - Mörder Im Führerhaus
TTITLE14=Ralf Paulsen - Du Hast Deine Träume
TTITLE15=Tom Astor - Zwischen Mitternacht Und Morgen
EXTD=
EXTT0=
EXTT1=
EXTT2=
EXTT3=
EXTT4=
EXTT5=
EXTT6=
EXTT7=
EXTT8=
EXTT9=
EXTT10=
EXTT11=
EXTT12=
EXTT13=
EXTT14=
EXTT15=
PLAYORDER=
